# xmcd CD database file
#
# Track frame offsets:
#	150
#	28925
#	45650
#	63792
#	78750
#	99447
#	119795
#	140040
#	155434
#	173197
#	192717
#	209665
#	230930
#	245790
#
# Disc length: 3809 seconds
#
# Revision: 1
# Processed by: cddbd v1.5.1PL0 Copyright (c) Steve Scherf et al.
# Submitted via: CDex 1.50
#
DISCID=d60edf0e
DTITLE=Wayne Galley - Left of Center Right from the Heart
DYEAR=1994
DGENRE=Country
TTITLE0=I'm not a Rich Man
TTITLE1=Someone to Turn to
TTITLE2=Way Out West
TTITLE3=It Began in Laredo
TTITLE4=One
TTITLE5=Rock' N Roll Cowboy
TTITLE6=Thread of a Memory
TTITLE7=The Danger's Over
TTITLE8=Different Kind of Folks
TTITLE9=Something to Believe In
TTITLE10=Waltzing Matilda
TTITLE11=It's Alright
TTITLE12=Fire Fire Fire
TTITLE13=Seminole Wind
EXTD=YEAR: 1994
EXTT0=
EXTT1=
EXTT2=
EXTT3=
EXTT4=
EXTT5=
EXTT6=
EXTT7=
EXTT8=
EXTT9=
EXTT10=
EXTT11=
EXTT12=
EXTT13=
PLAYORDER=
